#!OML:ASF H:\MichaelJackson\Top Level 1\Subject 1\Session 1\male.ASF
:FULLY-SPECIFIED
:DEGREES
38
root 3.76003 16.8687 -18.8228 7.88965 -4.63891 -0.752628
lowerback -4.81413 -0.225639 -2.02838
upperback -0.88224 -0.237594 1.95484
thorax 1.80821 -0.13454 3.13743
lowerneck -9.63799 -1.35302 -3.86406
upperneck 2.88091 -1.52445 3.39977
head 2.68666 -0.688383 1.70827
rclavicle -1.0461e-014 -1.90833e-014
rhumerus -38.5908 5.64854 -89.3718
rradius 34.6596
rwrist 13.1913
rhand -30.8673 -22.8012
rfingers 7.12502
rthumb -4.155 -52.7405
lclavicle -1.0461e-014 -1.90833e-014
lhumerus -37.7657 -5.77502 95.3858
lradius 39.019
lwrist 6.03681
lhand -12.1459 7.02413
lfingers 7.12502
lthumb 13.9164 36.5385
rfemur -20.6606 5.57419 19.7909
rtibia 36.0624
rfoot -20.9968 -12.3093
rtoes 16.4296
lfemur -19.7461 1.29335 -20.6947
ltibia 35.7556
lfoot -23.4287 10.3169
ltoes 13.8492
39
root 3.75957 16.869 -18.8225 7.89124 -4.59862 -0.748298
lowerback -4.84593 -0.216796 -2.02524
upperback -0.881662 -0.225705 1.96182
thorax 1.82578 -0.128853 3.14366
lowerneck -9.6314 -1.36332 -3.88224
upperneck 2.85801 -1.53696 3.42096
head 2.67884 -0.694104 1.71774
rclavicle -3.72721e-015 8.34896e-015
rhumerus -38.5772 5.61856 -89.3447
rradius 34.5989
rwrist 13.2385
rhand -30.8318 -22.7938
rfingers 7.12502
rthumb -4.12067 -52.7336
lclavicle -3.72721e-015 8.34896e-015
lhumerus -37.7498 -5.78057 95.4266
lradius 39.0809
lwrist 6.11668
lhand -12.0899 7.02345
lfingers 7.12502
lthumb 13.9704 36.5341
rfemur -20.6355 5.62384 19.7834
rtibia 36.0655
rfoot -21.0869 -12.2895
rtoes 16.9506
lfemur -19.7487 1.32359 -20.6956
ltibia 35.7461
lfoot -23.4229 10.249
ltoes 13.8484
40
root 3.75915 16.8693 -18.8222 7.89529 -4.55925 -0.744229
lowerback -4.88067 -0.207923 -2.0231
upperback -0.880581 -0.213724 1.97006
thorax 1.84551 -0.123168 3.15178
lowerneck -9.62864 -1.37363 -3.90115
upperneck 2.8395 -1.54931 3.44146
head 2.67322 -0.699761 1.72716
rclavicle 1.9133e-015 2.46493e-014
rhumerus -38.5615 5.58855 -89.316
rradius 34.5428
rwrist 13.2811
rhand -30.7985 -22.7823
rfingers 7.12502
rthumb -4.08854 -52.7228
lclavicle 1.9133e-015 2.46493e-014
lhumerus -37.7351 -5.78901 95.4704
lradius 39.1396
lwrist 6.19739
lhand -12.047 7.03898
lfingers 7.12502
lthumb 14.0117 36.5467
rfemur -20.618 5.65572 19.7772
rtibia 36.0682
rfoot -21.16 -12.2697
rtoes 17.3732
lfemur -19.7551 1.35193 -20.6964
ltibia 35.7392
lfoot -23.4193 10.1824
ltoes 13.8511
41
root 3.75875 16.8697 -18.8219 7.90139 -4.52082 -0.741073
lowerback -4.92432 -0.198227 -2.0235
upperback -0.875322 -0.200483 1.98078
thorax 1.87446 -0.11706 3.16401
lowerneck -9.62426 -1.38427 -3.92157
upperneck 2.81615 -1.56186 3.46155
head 2.6657 -0.705553 1.73668
rclavicle 1.19271e-014 2.38542e-015
rhumerus -38.5378 5.55676 -89.2825
rradius 34.4913
rwrist 13.319
rhand -30.7648 -22.7672
rfingers 7.12502
rthumb -4.05605 -52.7083
lclavicle 1.19271e-014 2.38542e-015
lhumerus -37.7158 -5.80164 95.5187
lradius 39.1941
lwrist 6.2737
lhand -12.0092 7.07133
lfingers 7.12502
lthumb 14.0481 36.5766
rfemur -20.6152 5.65825 19.7752
rtibia 36.0703
rfoot -21.1881 -12.2726
rtoes 17.5456
lfemur -19.7647 1.38025 -20.6966
ltibia 35.7349
lfoot -23.4159 10.1175
ltoes 13.8531
42
root 3.75833 16.8699 -18.8215 7.90715 -4.48068 -0.738541
lowerback -4.94989 -0.192647 -2.02052
upperback -0.879542 -0.193072 1.99085
thorax 1.88392 -0.113447 3.17326
lowerneck -9.62222 -1.39081 -3.94117
upperneck 2.80384 -1.56913 3.48124
head 2.66212 -0.708724 1.74629
rclavicle -3.97569e-016 -1.31198e-014
rhumerus -38.5282 5.53618 -89.2594
rradius 34.4496
rwrist 13.347
rhand -30.7341 -22.7548
rfingers 7.12502
rthumb -4.02635 -52.6965
lclavicle -3.97569e-016 -1.31198e-014
lhumerus -37.7135 -5.80762 95.5631
lradius 39.2451
lwrist 6.33608
lhand -12.0037 7.05797
lfingers 7.12502
lthumb 14.0535 36.5628
rfemur -20.6102 5.64823 19.7743
rtibia 36.072
rfoot -21.2185 -12.2585
rtoes 17.7407
lfemur -19.7752 1.40582 -20.6962
ltibia 35.7328
lfoot -23.4115 10.056
ltoes 13.846
43
root 3.75791 16.87 -18.8211 7.91026 -4.43912 -0.734756
lowerback -4.95015 -0.192354 -2.01252
upperback -0.896224 -0.193156 1.99806
thorax 1.8669 -0.113007 3.17616
lowerneck -9.61811 -1.39195 -3.96164
upperneck 2.80091 -1.5695 3.50342
head 2.66111 -0.708424 1.75733
rclavicle -8.19987e-015 1.63003e-014
rhumerus -38.5381 5.52836 -89.2511
rradius 34.4186
rwrist 13.3637
rhand -30.7102 -22.7439
rfingers 7.12502
rthumb -4.0033 -52.686
lclavicle -8.19987e-015 1.63003e-014
lhumerus -37.7346 -5.80633 95.6004
lradius 39.2922
lwrist 6.37479
lhand -12.0165 7.04133
lfingers 7.12502
lthumb 14.0411 36.547
rfemur -20.6034 5.6254 19.7728
rtibia 36.0736
rfoot -21.2424 -12.2377
rtoes 17.9132
lfemur -19.7832 1.42705 -20.6971
ltibia 35.732
lfoot -23.4059 10.0005
ltoes 13.8257
44
root 3.75742 16.8703 -18.8206 7.91054 -4.39218 -0.728705
lowerback -4.94778 -0.194826 -2.00795
upperback -0.911641 -0.196788 2.0056
thorax 1.84997 -0.114379 3.18113
lowerneck -9.60753 -1.39181 -3.97981
upperneck 2.79026 -1.56827 3.52124
head 2.65609 -0.707493 1.76651
rclavicle -5.76476e-015 -7.95139e-016
rhumerus -38.5479 5.52743 -89.2471
rradius 34.3963
rwrist 13.369
rhand -30.6943 -22.7388
rfingers 7.12502
rthumb -3.98795 -52.6812
lclavicle -5.76476e-015 -7.95139e-016
lhumerus -37.7576 -5.80813 95.6391
lradius 39.3318
lwrist 6.38757
lhand -12.0577 6.98166
lfingers 7.12502
lthumb 14.0014 36.4901
rfemur -20.5912 5.59559 19.7693
rtibia 36.0747
rfoot -21.2745 -12.2032
rtoes 18.1389
lfemur -19.7896 1.44452 -20.6999
ltibia 35.7326
lfoot -23.3991 9.94714
ltoes 13.7926
45
root 3.75698 16.8704 -18.8202 7.90934 -4.34345 -0.719497
lowerback -4.94477 -0.198767 -2.00636
upperback -0.925384 -0.202223 2.01244
thorax 1.83455 -0.116709 3.18693
lowerneck -9.59045 -1.39073 -3.99551
upperneck 2.76972 -1.56588 3.53491
head 2.64633 -0.706139 1.77383
rclavicle -2.60905e-015 4.77083e-015
rhumerus -38.5524 5.52836 -89.2456
rradius 34.3762
rwrist 13.3699
rhand -30.6855 -22.7306
rfingers 7.12502
rthumb -3.97948 -52.6732
lclavicle -2.60905e-015 4.77083e-015
lhumerus -37.7808 -5.81496 95.679
lradius 39.3657
lwrist 6.38164
lhand -12.119 6.89561
lfingers 7.12502
lthumb 13.9423 36.4081
rfemur -20.5891 5.54302 19.7657
rtibia 36.0761
rfoot -21.2641 -12.2021
rtoes 18.1103
lfemur -19.7944 1.45402 -20.7064
ltibia 35.733
lfoot -23.3911 9.90241
ltoes 13.7497
46
root 3.75652 16.8705 -18.8198 7.90565 -4.29086 -0.709785
lowerback -4.93933 -0.204313 -2.0057
upperback -0.937212 -0.209793 2.01964
thorax 1.81989 -0.120146 3.1935
lowerneck -9.56902 -1.38927 -4.00939
upperneck 2.74168 -1.563 3.54431
head 2.63309 -0.704682 1.77936
rclavicle 4.44781e-015 -3.97569e-015
rhumerus -38.5452 5.52235 -89.2426
rradius 34.3474
rwrist 13.3788
rhand -30.6836 -22.7152
rfingers 7.12502
rthumb -3.97757 -52.6579
lclavicle 4.44781e-015 -3.97569e-015
lhumerus -37.8039 -5.82597 95.7195
lradius 39.3978
lwrist 6.36423
lhand -12.1861 6.80025
lfingers 7.12502
lthumb 13.8776 36.3172
rfemur -20.5851 5.48658 19.7623
rtibia 36.0777
rfoot -21.2492 -12.2071
rtoes 18.0515
lfemur -19.797 1.45747 -20.7131
ltibia 35.7326
lfoot -23.381 9.86208
ltoes 13.7003
47
root 3.75599 16.8707 -18.8196 7.90072 -4.23687 -0.699631
lowerback -4.93264 -0.210437 -2.00537
upperback -0.947759 -0.218132 2.0267
thorax 1.80591 -0.123994 3.20006
lowerneck -9.53862 -1.38767 -4.02281
upperneck 2.70197 -1.55995 3.55111
head 2.61417 -0.703282 1.78382
rclavicle -1.80646e-014 1.98785e-014
rhumerus -38.5259 5.50685 -89.2371
rradius 34.3075
rwrist 13.3966
rhand -30.69 -22.6893
rfingers 7.12502
rthumb -3.98383 -52.6318
lclavicle -1.80646e-014 1.98785e-014
lhumerus -37.8267 -5.84413 95.7613
lradius 39.4242
lwrist 6.33868
lhand -12.266 6.68534
lfingers 7.12502
lthumb 13.8007 36.2076
rfemur -20.5672 5.44994 19.7549
rtibia 36.0795
rfoot -21.2829 -12.1692
rtoes 18.2947
lfemur -19.7985 1.45578 -20.72
ltibia 35.7311
lfoot -23.369 9.82771
ltoes 13.6426
48
root 3.75544 16.8711 -18.8195 7.89412 -4.17969 -0.690111
lowerback -4.92747 -0.217367 -2.00399
upperback -0.954689 -0.227595 2.03342
thorax 1.79658 -0.128508 3.20562
lowerneck -9.50407 -1.38629 -4.03458
upperneck 2.65334 -1.55729 3.55636
head 2.59142 -0.702121 1.78737
rclavicle 2.28602e-015 8.74653e-015
rhumerus -38.4921 5.48193 -89.2295
rradius 34.2583
rwrist 13.4238
rhand -30.7028 -22.66
rfingers 7.12502
rthumb -3.99614 -52.6023
lclavicle 2.28602e-015 8.74653e-015
lhumerus -37.8458 -5.86681 95.8009
lradius 39.4514
lwrist 6.32242
lhand -12.4285 6.34487
lfingers 7.12502
lthumb 13.644 35.8777
rfemur -20.5371 5.43736 19.7455
rtibia 36.0813
rfoot -21.3553 -12.1096
rtoes 18.7576
lfemur -19.7985 1.4484 -20.7254
ltibia 35.7289
lfoot -23.3563 9.79428
ltoes 13.5922
49
root 3.75487 16.8714 -18.8194 7.88692 -4.12049 -0.6808
lowerback -4.92195 -0.224915 -2.00195
upperback -0.959925 -0.237917 2.03956
thorax 1.78885 -0.13349 3.21015
lowerneck -9.46757 -1.38527 -4.04603
upperneck 2.5997 -1.55513 3.56169
head 2.56666 -0.701208 1.7908
rclavicle 3.3048e-015 -3.57812e-015
rhumerus -38.4526 5.45197 -89.2216
rradius 34.2109
rwrist 13.4537
rhand -30.7174 -22.6324
rfingers 7.12502
rthumb -4.01028 -52.5744
lclavicle 3.3048e-015 -3.57812e-015
lhumerus -37.8606 -5.89123 95.8364
lradius 39.4834
lwrist 6.33277
lhand -12.5195 6.136
lfingers 7.12502
lthumb 13.5563 35.6747
rfemur -20.5076 5.42606 19.7373
rtibia 36.0836
rfoot -21.4237 -12.0599
rtoes 19.1971
lfemur -19.7978 1.43805 -20.73
ltibia 35.7255
lfoot -23.3424 9.75863
ltoes 13.5538
50
root 3.75429 16.8715 -18.8193 7.87874 -4.06072 -0.672905
lowerback -4.91657 -0.233133 -1.99888
upperback -0.963083 -0.249198 2.04577
thorax 1.78341 -0.139004 3.21412
lowerneck -9.43168 -1.38428 -4.05797
upperneck 2.54562 -1.55299 3.56818
head 2.54192 -0.700266 1.79472
rclavicle 9.29318e-015 -2.3059e-014
rhumerus -38.4143 5.42502 -89.216
rradius 34.1753
rwrist 13.4786
rhand -30.7313 -22.6181
rfingers 7.12502
rthumb -4.02363 -52.5598
lclavicle 9.29318e-015 -2.3059e-014
lhumerus -37.874 -5.91741 95.8692
lradius 39.5119
lwrist 6.34673
lhand -12.6149 5.93557
lfingers 7.12502
lthumb 13.4644 35.4804
rfemur -20.4887 5.40507 19.7347
rtibia 36.0861
rfoot -21.4466 -12.0655
rtoes 19.3344
lfemur -19.7957 1.42718 -20.7325
ltibia 35.7221
lfoot -23.3297 9.71992
ltoes 13.5241
51
root 3.75372 16.8717 -18.8191 7.87096 -4.00194 -0.668026
lowerback -4.91229 -0.240419 -1.99265
upperback -0.965207 -0.259388 2.05191
thorax 1.77955 -0.143993 3.21629
lowerneck -9.39415 -1.38425 -4.06991
upperneck 2.49105 -1.55224 3.57566
head 2.51681 -0.699997 1.79888
rclavicle -1.01629e-014 -2.78299e-014
rhumerus -38.3795 5.3991 -89.2122
rradius 34.1523
rwrist 13.4956
rhand -30.7468 -22.6114
rfingers 7.12502
rthumb -4.03862 -52.5528
lclavicle -1.01629e-014 -2.78299e-014
lhumerus -37.8872 -5.94568 95.8995
lradius 39.5352
lwrist 6.35585
lhand -12.6913 5.79147
lfingers 7.12502
lthumb 13.3908 35.3411
rfemur -20.4839 5.37591 19.7392
rtibia 36.0889
rfoot -21.4225 -12.1258
rtoes 19.1824
lfemur -19.7936 1.42012 -20.7316
ltibia 35.719
lfoot -23.3182 9.67712
ltoes 13.4968
